<svg width="69" height="69" viewBox="0 0 69 69" fill="none" xmlns="http://www.w3.org/2000/svg">
<path d="M56.764 46.5089C56.6979 46.5131 56.6316 46.5131 56.5656 46.5089H37.5647V46.667C37.5647 46.7619 37.444 46.8424 37.2945 46.8424H31.8003C31.6508 46.8424 31.5301 46.7619 31.5301 46.667V46.5089H12.5321C12.466 46.5132 12.3998 46.5132 12.3337 46.5089H7.23633V47.5956C7.23633 48.2741 8.3317 48.8204 9.68583 48.8204H59.4233C60.7746 48.8204 61.8728 48.2741 61.8728 47.5956V46.5089H56.764ZM58.3624 44.7292V19.7167C58.3624 19.2409 58.1734 18.7846 57.837 18.4482C57.5006 18.1117 57.0443 17.9227 56.5685 17.9227H12.5321C12.0563 17.9227 11.6 18.1117 11.2635 18.4482C10.9271 18.7846 10.7381 19.2409 10.7381 19.7167V44.7292C10.7389 45.1701 10.902 45.5952 11.1964 45.9235C11.4907 46.2517 11.8955 46.4601 12.3337 46.5089H56.764C57.2026 46.4608 57.6082 46.2527 57.9031 45.9243C58.198 45.596 58.3615 45.1705 58.3624 44.7292ZM34.4568 18.2994H34.4827C34.5047 18.2965 34.5269 18.2965 34.5488 18.2994C34.5727 18.2963 34.5968 18.2963 34.6207 18.2994C34.7281 18.3153 34.8262 18.3694 34.897 18.4517C34.9677 18.5341 35.0064 18.6393 35.006 18.7479C35.0065 18.8115 34.9937 18.8745 34.9685 18.933C34.9432 18.9914 34.906 19.0439 34.8593 19.0871C34.7985 19.1459 34.7214 19.185 34.638 19.1992C34.5791 19.2107 34.5186 19.2107 34.4597 19.1992C34.3775 19.1838 34.3016 19.1449 34.2412 19.0871C34.1944 19.044 34.1571 18.9915 34.1318 18.9331C34.1066 18.8746 34.0939 18.8115 34.0946 18.7479C34.0926 18.6424 34.1278 18.5397 34.1941 18.4577C34.2603 18.3757 34.3534 18.3196 34.4568 18.2994ZM12.4918 44.85V19.6104H56.603V44.85H12.4918Z" fill="#D6D6D6"/>
</svg>
