<svg width="57" height="53" viewBox="0 0 57 53" fill="none" xmlns="http://www.w3.org/2000/svg">
<path d="M22.9283 13.7656C22.4184 12.1858 22.0681 10.5653 21.8822 8.92494C21.6957 7.28967 20.1603 6.07288 18.3921 6.07288H10.1888C8.07865 6.07288 6.45415 7.76777 6.6394 9.72104C8.50972 29.4072 25.3746 45.0875 46.5465 46.8277C48.6484 46.9999 50.47 45.4949 50.47 43.5328V36.7312C50.47 34.249 49.1614 32.8268 47.4027 32.6535C45.6386 32.4809 43.8957 32.1556 42.1967 31.6818C41.1893 31.4037 40.1197 31.3844 39.1015 31.6261C38.0833 31.8677 37.1544 32.3613 36.4136 33.0543L32.9022 36.3193C26.5697 33.1294 21.3715 28.296 17.9408 22.4079L21.4523 19.1429C22.1978 18.4542 22.7288 17.5906 22.9889 16.6438C23.249 15.697 23.2273 14.7024 22.9283 13.7656Z" stroke="#D6D6D6" stroke-width="2" stroke-linecap="round" stroke-linejoin="round"/>
</svg>
