<svg width="176" height="246" viewBox="0 0 176 246" fill="none" xmlns="http://www.w3.org/2000/svg">
<path d="M88 18C96.6529 18 105.112 20.5659 112.306 25.3732C119.501 30.1805 125.108 37.0133 128.42 45.0076C131.731 53.0019 132.597 61.7985 130.909 70.2852C129.221 78.7719 125.054 86.5674 118.936 92.6859C112.817 98.8045 105.022 102.971 96.5352 104.659C88.0485 106.347 79.2519 105.481 71.2576 102.17C63.2633 98.8584 56.4305 93.2508 51.6232 86.0562C46.8159 78.8615 44.25 70.4029 44.25 61.75C44.25 50.1468 48.8594 39.0188 57.0641 30.8141C65.2688 22.6094 76.3968 18 88 18ZM88 0.5C75.8859 0.5 64.0438 4.09225 53.9713 10.8225C43.8988 17.5527 36.0482 27.1187 31.4124 38.3106C26.7765 49.5026 25.5636 61.8179 27.9269 73.6993C30.2902 85.5806 36.1237 96.4943 44.6897 105.06C53.2557 113.626 64.1694 119.46 76.0507 121.823C87.9321 124.186 100.247 122.973 111.439 118.338C122.631 113.702 132.197 105.851 138.928 95.7787C145.658 85.7062 149.25 73.8641 149.25 61.75C149.25 45.5055 142.797 29.9263 131.31 18.4397C119.824 6.95311 104.245 0.5 88 0.5ZM175.5 245.5H158V201.75C158 196.005 156.868 190.316 154.67 185.008C152.471 179.7 149.248 174.877 145.186 170.814C141.123 166.752 136.3 163.529 130.992 161.33C125.684 159.132 119.995 158 114.25 158H61.75C50.1468 158 39.0188 162.609 30.8141 170.814C22.6094 179.019 18 190.147 18 201.75V245.5H0.5V201.75C0.5 185.505 6.95311 169.926 18.4397 158.44C29.9263 146.953 45.5055 140.5 61.75 140.5H114.25C130.495 140.5 146.074 146.953 157.56 158.44C169.047 169.926 175.5 185.505 175.5 201.75V245.5Z" fill="#D6D6D6"/>
</svg>
